<?xml version="1.0" encoding="UTF-8"?>
<svg width="512" height="512" viewBox="0 0 512 512" fill="none" xmlns="http://www.w3.org/2000/svg">
  <!-- Background gradient -->
  <defs>
    <linearGradient id="bgGradient" x1="0%" y1="0%" x2="100%" y2="100%">
      <stop offset="0%" stop-color="#0ea5e9" />
      <stop offset="100%" stop-color="#8b5cf6" />
    </linearGradient>
    <filter id="shadow" x="-20%" y="-20%" width="140%" height="140%">
      <feGaussianBlur in="SourceAlpha" stdDeviation="10" />
      <feOffset dx="0" dy="4" result="offsetblur" />
      <feComponentTransfer>
        <feFuncA type="linear" slope="0.3" />
      </feComponentTransfer>
      <feMerge>
        <feMergeNode />
        <feMergeNode in="SourceGraphic" />
      </feMerge>
    </filter>
  </defs>

  <!-- Rounded background -->
  <rect width="512" height="512" rx="128" fill="url(#bgGradient)" />

  <!-- Sun -->
  <circle cx="180" cy="200" r="70" fill="#fbbf24" filter="url(#shadow)" />

  <!-- Cloud -->
  <path d="M380 280C380 242.9 349.1 212 312 212C285.9 212 263.3 226.4 251.7 247.6C244.3 243.5 235.5 241 226 241C199.5 241 178 262.5 178 289C178 290.7 178.1 292.3 178.2 293.9C166.1 301.4 158 314.8 158 330C158 354.3 177.7 374 202 374H370C397.6 374 420 351.6 420 324C420 300.9 403.1 281.7 380 280Z" fill="white" filter="url(#shadow)" />

  <!-- Rain drops -->
  <path d="M220 380L240 430" stroke="#60a5fa" stroke-width="12" stroke-linecap="round" />
  <path d="M260 380L280 430" stroke="#60a5fa" stroke-width="12" stroke-linecap="round" />
  <path d="M300 380L320 430" stroke="#60a5fa" stroke-width="12" stroke-linecap="round" />
</svg>
